<svg width="32" height="32" viewBox="0 0 32 32" fill="none" xmlns="http://www.w3.org/2000/svg">
<path d="M10.4003 2.66667H21.6003C25.867 2.66667 29.3337 6.13333 29.3337 10.4V21.6C29.3337 23.651 28.5189 25.618 27.0686 27.0683C25.6183 28.5186 23.6513 29.3333 21.6003 29.3333H10.4003C6.13366 29.3333 2.66699 25.8667 2.66699 21.6V10.4C2.66699 8.34899 3.48175 6.38199 4.93203 4.93171C6.38231 3.48143 8.34932 2.66667 10.4003 2.66667ZM10.1337 5.33333C8.86062 5.33333 7.63972 5.83905 6.73955 6.73922C5.83937 7.63939 5.33366 8.86029 5.33366 10.1333V21.8667C5.33366 24.52 7.48033 26.6667 10.1337 26.6667H21.867C23.14 26.6667 24.3609 26.161 25.2611 25.2608C26.1613 24.3606 26.667 23.1397 26.667 21.8667V10.1333C26.667 7.48 24.5203 5.33333 21.867 5.33333H10.1337ZM23.0003 7.33333C23.4424 7.33333 23.8663 7.50893 24.1788 7.82149C24.4914 8.13405 24.667 8.55797 24.667 9C24.667 9.44203 24.4914 9.86595 24.1788 10.1785C23.8663 10.4911 23.4424 10.6667 23.0003 10.6667C22.5583 10.6667 22.1344 10.4911 21.8218 10.1785C21.5093 9.86595 21.3337 9.44203 21.3337 9C21.3337 8.55797 21.5093 8.13405 21.8218 7.82149C22.1344 7.50893 22.5583 7.33333 23.0003 7.33333ZM16.0003 9.33333C17.7684 9.33333 19.4641 10.0357 20.7144 11.286C21.9646 12.5362 22.667 14.2319 22.667 16C22.667 17.7681 21.9646 19.4638 20.7144 20.714C19.4641 21.9643 17.7684 22.6667 16.0003 22.6667C14.2322 22.6667 12.5365 21.9643 11.2863 20.714C10.036 19.4638 9.33366 17.7681 9.33366 16C9.33366 14.2319 10.036 12.5362 11.2863 11.286C12.5365 10.0357 14.2322 9.33333 16.0003 9.33333ZM16.0003 12C14.9395 12 13.922 12.4214 13.1719 13.1716C12.4218 13.9217 12.0003 14.9391 12.0003 16C12.0003 17.0609 12.4218 18.0783 13.1719 18.8284C13.922 19.5786 14.9395 20 16.0003 20C17.0612 20 18.0786 19.5786 18.8288 18.8284C19.5789 18.0783 20.0003 17.0609 20.0003 16C20.0003 14.9391 19.5789 13.9217 18.8288 13.1716C18.0786 12.4214 17.0612 12 16.0003 12Z" fill="#144C8E"/>
</svg>
