<svg width="56" height="56" viewBox="0 0 56 56" fill="none" xmlns="http://www.w3.org/2000/svg">
<rect width="56" height="56" rx="28" fill="#E8EFF7"/>
<mask id="mask0_107_1578" style="mask-type:luminance" maskUnits="userSpaceOnUse" x="13" y="13" width="30" height="30">
<path d="M28.0003 41.3334C29.7516 41.3356 31.4861 40.9917 33.104 40.3215C34.722 39.6513 36.1916 38.668 37.4283 37.4281C38.6682 36.1913 39.6515 34.7217 40.3217 33.1038C40.9919 31.4858 41.3358 29.7514 41.3337 28.0001C41.3358 26.2488 40.9919 24.5144 40.3217 22.8964C39.6515 21.2785 38.6682 19.8089 37.4283 18.5721C36.1916 17.3322 34.722 16.3489 33.104 15.6787C31.4861 15.0085 29.7516 14.6646 28.0003 14.6668C26.2491 14.6646 24.5146 15.0085 22.8967 15.6787C21.2787 16.3489 19.8091 17.3322 18.5723 18.5721C17.3324 19.8089 16.3491 21.2785 15.6789 22.8964C15.0087 24.5144 14.6648 26.2488 14.667 28.0001C14.6648 29.7514 15.0087 31.4858 15.6789 33.1038C16.3491 34.7217 17.3324 36.1913 18.5723 37.4281C19.8091 38.668 21.2787 39.6513 22.8967 40.3215C24.5146 40.9917 26.2491 41.3356 28.0003 41.3334Z" fill="white" stroke="white" stroke-width="2" stroke-linejoin="round"/>
<path d="M22.667 28L26.667 32L34.667 24" stroke="black" stroke-width="2" stroke-linecap="round" stroke-linejoin="round"/>
</mask>
<g mask="url(#mask0_107_1578)">
<path d="M12 12H44V44H12V12Z" fill="#195FB1"/>
</g>
</svg>
