<svg width="361" height="52" viewBox="0 0 361 52" fill="none" xmlns="http://www.w3.org/2000/svg">
<path d="M361 45.988C361 48.757 356.366 51 350.633 51H11.3802C5.65067 51 1 48.757 1 45.988V6.01858C1 3.25084 5.65067 1 11.3802 1H350.631C356.366 1 360.997 3.25084 360.997 6.01858L361 45.988Z" fill="#0F0F0F"/>
<path d="M347.63 1.04162C353.82 1.04162 358.857 3.4905 358.857 6.5V45.5C358.857 48.5095 353.82 50.9584 347.63 50.9584H13.3704C7.17989 50.9584 2.1426 48.5095 2.1426 45.5V6.5C2.1426 3.4905 7.17989 1.04162 13.3704 1.04162H347.63ZM347.63 -1.976e-06H13.3704C6.02001 -1.976e-06 0 2.92662 0 6.5V45.5C0 49.0734 6.02001 52 13.3704 52H347.63C354.98 52 361 49.0734 361 45.5V6.5C361 2.92662 354.98 -1.976e-06 347.63 -1.976e-06Z" fill="#A6A6A6"/>
<path d="M131.115 25.7192C131.076 21.5293 134.633 19.4909 134.796 19.396C132.781 16.5321 129.659 16.1408 128.561 16.1096C125.939 15.8405 123.395 17.6397 122.059 17.6397C120.696 17.6397 118.639 16.1356 116.421 16.1798C113.568 16.2227 110.899 17.8334 109.435 20.3346C106.413 25.4345 108.667 32.929 111.561 37.0513C113.009 39.0702 114.701 41.3244 116.916 41.2451C119.083 41.158 119.892 39.8983 122.507 39.8983C125.097 39.8983 125.857 41.2451 128.116 41.1944C130.441 41.158 131.905 39.1664 133.303 37.1293C134.976 34.8153 135.648 32.5364 135.675 32.4194C135.62 32.4012 131.159 30.7411 131.115 25.7192Z" fill="white"/>
<path d="M126.848 13.3978C128.013 11.9769 128.811 10.0438 128.589 8.08209C126.903 8.15489 124.793 9.21959 123.579 10.6093C122.504 11.8339 121.544 13.8411 121.792 15.7287C123.687 15.8665 125.632 14.7966 126.848 13.3978Z" fill="white"/>
<path d="M162.471 40.9552H159.443L157.785 35.8735H152.019L150.439 40.9552H147.491L153.203 23.6548H156.731L162.471 40.9552ZM157.285 33.7415L155.785 29.224C155.626 28.7625 155.329 27.6757 154.89 25.9649H154.837C154.662 26.7007 154.381 27.7875 153.994 29.224L152.521 33.7415H157.285Z" fill="white"/>
<path d="M177.16 34.5644C177.16 36.686 176.572 38.363 175.396 39.5941C174.343 40.69 173.035 41.2373 171.474 41.2373C169.788 41.2373 168.578 40.6471 167.84 39.4667H167.787V46.0382H164.944V32.5871C164.944 31.2533 164.908 29.8844 164.839 28.4804H167.339L167.498 30.4577H167.551C168.499 28.9679 169.938 28.2243 171.868 28.2243C173.378 28.2243 174.638 28.8054 175.646 29.9689C176.656 31.1337 177.16 32.6651 177.16 34.5644ZM174.264 34.6658C174.264 33.4516 173.984 32.4506 173.422 31.6628C172.807 30.8412 171.982 30.4304 170.947 30.4304C170.246 30.4304 169.608 30.6592 169.039 31.1103C168.468 31.5653 168.095 32.1594 167.92 32.8952C167.832 33.2384 167.788 33.5192 167.788 33.7402V35.8202C167.788 36.7276 168.074 37.4933 168.644 38.1186C169.215 38.7439 169.956 39.0559 170.868 39.0559C171.939 39.0559 172.772 38.6529 173.368 37.8495C173.966 37.0448 174.264 35.984 174.264 34.6658Z" fill="white"/>
<path d="M191.877 34.5644C191.877 36.686 191.289 38.363 190.111 39.5941C189.059 40.69 187.751 41.2373 186.19 41.2373C184.505 41.2373 183.294 40.6471 182.558 39.4667H182.505V46.0382H179.662V32.5871C179.662 31.2533 179.626 29.8844 179.557 28.4804H182.057L182.215 30.4577H182.269C183.215 28.9679 184.654 28.2243 186.586 28.2243C188.094 28.2243 189.354 28.8054 190.365 29.9689C191.371 31.1337 191.877 32.6651 191.877 34.5644ZM188.981 34.6658C188.981 33.4516 188.699 32.4506 188.137 31.6628C187.522 30.8412 186.699 30.4304 185.663 30.4304C184.961 30.4304 184.325 30.6592 183.754 31.1103C183.183 31.5653 182.811 32.1594 182.637 32.8952C182.55 33.2384 182.505 33.5192 182.505 33.7402V35.8202C182.505 36.7276 182.79 37.4933 183.358 38.1186C183.929 38.7426 184.67 39.0559 185.585 39.0559C186.655 39.0559 187.489 38.6529 188.085 37.8495C188.682 37.0448 188.981 35.984 188.981 34.6658Z" fill="white"/>
<path d="M208.33 36.1036C208.33 37.5752 207.806 38.7725 206.754 39.6968C205.598 40.7069 203.989 41.2113 201.921 41.2113C200.012 41.2113 198.481 40.8525 197.322 40.1336L197.981 37.8235C199.229 38.5593 200.598 38.9285 202.09 38.9285C203.161 38.9285 203.994 38.6919 204.593 38.2213C205.189 37.7507 205.486 37.1189 205.486 36.3311C205.486 35.6291 205.241 35.0376 204.749 34.5579C204.26 34.0782 203.442 33.6323 202.301 33.2202C199.194 32.0905 197.642 30.4356 197.642 28.2594C197.642 26.8372 198.186 25.6711 199.276 24.7637C200.361 23.855 201.809 23.4013 203.62 23.4013C205.234 23.4013 206.576 23.6756 207.646 24.2229L206.936 26.4823C205.936 25.9519 204.805 25.6867 203.54 25.6867C202.54 25.6867 201.758 25.9272 201.198 26.4056C200.725 26.8333 200.488 27.3546 200.488 27.9721C200.488 28.6559 200.758 29.2214 201.302 29.666C201.776 30.0768 202.636 30.5214 203.884 31.0011C205.41 31.6004 206.532 32.3011 207.253 33.1045C207.972 33.9053 208.33 34.9076 208.33 36.1036Z" fill="white"/>
<path d="M217.729 30.5604H214.595V36.6171C214.595 38.1576 215.147 38.9272 216.254 38.9272C216.762 38.9272 217.183 38.8843 217.517 38.7985L217.595 40.9032C217.035 41.1073 216.298 41.21 215.385 41.21C214.262 41.21 213.385 40.8759 212.751 40.209C212.121 39.5408 211.803 38.4202 211.803 36.8459V30.5578H209.937V28.4778H211.803V26.1937L214.595 25.3721V28.4778H217.729V30.5604Z" fill="white"/>
<path d="M231.866 34.6151C231.866 36.5326 231.303 38.1069 230.181 39.338C229.003 40.6055 227.441 41.2373 225.493 41.2373C223.615 41.2373 222.121 40.6302 221.006 39.416C219.891 38.2018 219.334 36.6691 219.334 34.8218C219.334 32.8887 219.907 31.3053 221.058 30.0742C222.206 28.8418 223.755 28.2256 225.703 28.2256C227.581 28.2256 229.091 28.8327 230.231 30.0482C231.322 31.2273 231.866 32.7496 231.866 34.6151ZM228.917 34.7048C228.917 33.5543 228.665 32.5676 228.154 31.7447C227.558 30.7489 226.706 30.2523 225.602 30.2523C224.459 30.2523 223.591 30.7502 222.995 31.7447C222.485 32.5689 222.233 33.5712 222.233 34.7568C222.233 35.9073 222.485 36.894 222.995 37.7156C223.61 38.7114 224.469 39.208 225.577 39.208C226.662 39.208 227.514 38.701 228.129 37.6896C228.653 36.8511 228.917 35.854 228.917 34.7048Z" fill="white"/>
<path d="M241.106 30.9179C240.825 30.8672 240.525 30.8412 240.21 30.8412C239.21 30.8412 238.437 31.2091 237.893 31.9462C237.419 32.5962 237.182 33.4178 237.182 34.4097V40.9552H234.341L234.367 32.409C234.367 30.9712 234.331 29.6621 234.261 28.4817H236.737L236.841 30.8685H236.919C237.219 30.0482 237.693 29.3878 238.341 28.8925C238.974 28.4466 239.658 28.2243 240.395 28.2243C240.658 28.2243 240.895 28.2425 241.106 28.275V30.9179Z" fill="white"/>
<path d="M253.819 34.1276C253.819 34.6242 253.786 35.0428 253.715 35.3847H245.187C245.22 36.6171 245.632 37.5596 246.424 38.2096C247.143 38.7907 248.072 39.0819 249.214 39.0819C250.476 39.0819 251.628 38.8856 252.664 38.4917L253.11 40.4157C251.899 40.9305 250.47 41.1866 248.82 41.1866C246.836 41.1866 245.279 40.6172 244.146 39.4797C243.015 38.3422 242.448 36.8147 242.448 34.8985C242.448 33.0174 242.975 31.4509 244.03 30.2016C245.134 28.8678 246.626 28.2009 248.503 28.2009C250.347 28.2009 251.743 28.8678 252.691 30.2016C253.442 31.2611 253.819 32.5715 253.819 34.1276ZM251.108 33.4087C251.127 32.5871 250.942 31.8773 250.556 31.278C250.064 30.5071 249.308 30.1223 248.291 30.1223C247.362 30.1223 246.606 30.498 246.028 31.252C245.555 31.8513 245.274 32.5702 245.187 33.4074H251.108V33.4087Z" fill="white"/>
<path d="M156.344 13.0117C156.344 14.5418 155.873 15.6936 154.933 16.4671C154.063 17.1808 152.825 17.5383 151.223 17.5383C150.428 17.5383 149.748 17.5045 149.179 17.4369V9.07661C149.921 8.95961 150.721 8.89981 151.585 8.89981C153.112 8.89981 154.263 9.22351 155.039 9.87091C155.908 10.6028 156.344 11.6493 156.344 13.0117ZM154.871 13.0494C154.871 12.0575 154.601 11.297 154.063 10.7666C153.524 10.2375 152.737 9.97231 151.701 9.97231C151.261 9.97231 150.887 10.0009 150.576 10.0607V16.4164C150.748 16.4424 151.063 16.4541 151.52 16.4541C152.589 16.4541 153.415 16.1642 153.996 15.5844C154.577 15.0046 154.871 14.1596 154.871 13.0494Z" fill="white"/>
<path d="M164.156 14.3481C164.156 15.2906 163.88 16.0628 163.328 16.6686C162.749 17.2913 161.983 17.602 161.025 17.602C160.103 17.602 159.368 17.3043 158.82 16.7063C158.273 16.1096 158 15.3569 158 14.4495C158 13.5005 158.281 12.7218 158.847 12.1173C159.412 11.5128 160.172 11.2099 161.129 11.2099C162.052 11.2099 162.793 11.5076 163.355 12.1043C163.888 12.6841 164.156 13.4329 164.156 14.3481ZM162.707 14.3923C162.707 13.8268 162.581 13.3419 162.332 12.9376C162.039 12.4488 161.621 12.2044 161.079 12.2044C160.517 12.2044 160.091 12.4488 159.797 12.9376C159.547 13.3419 159.423 13.8346 159.423 14.417C159.423 14.9825 159.548 15.4674 159.797 15.8717C160.1 16.3605 160.521 16.6049 161.065 16.6049C161.599 16.6049 162.017 16.3566 162.319 15.8587C162.577 15.4466 162.707 14.9578 162.707 14.3923Z" fill="white"/>
<path d="M174.631 11.3347L172.664 17.4629H171.384L170.57 14.8018C170.363 14.1375 170.195 13.4771 170.064 12.8219H170.039C169.918 13.4953 169.75 14.1544 169.534 14.8018L168.668 17.4629H167.374L165.524 11.3347H166.96L167.671 14.248C167.843 14.937 167.984 15.5935 168.098 16.2149H168.123C168.227 15.7027 168.399 15.0501 168.642 14.261L169.534 11.336H170.672L171.527 14.1986C171.734 14.8967 171.902 15.5688 172.031 16.2162H172.07C172.164 15.5857 172.307 14.9136 172.496 14.1986L173.259 11.336H174.631V11.3347Z" fill="white"/>
<path d="M181.875 17.4629H180.477V13.9529C180.477 12.8713 180.056 12.3305 179.211 12.3305C178.796 12.3305 178.461 12.4787 178.201 12.7764C177.944 13.0741 177.813 13.4251 177.813 13.8268V17.4616H176.416V13.0858C176.416 12.5476 176.399 11.9639 176.365 11.3321H177.593L177.659 12.2902H177.697C177.86 11.9925 178.103 11.7468 178.421 11.5505C178.8 11.3217 179.224 11.206 179.688 11.206C180.275 11.206 180.763 11.3906 181.151 11.7611C181.633 12.2148 181.875 12.8921 181.875 13.7917V17.4629Z" fill="white"/>
<path d="M185.728 17.4629H184.332V8.5228H185.728V17.4629Z" fill="white"/>
<path d="M193.955 14.3481C193.955 15.2906 193.679 16.0628 193.127 16.6686C192.548 17.2913 191.78 17.602 190.824 17.602C189.9 17.602 189.165 17.3043 188.619 16.7063C188.072 16.1096 187.799 15.3569 187.799 14.4495C187.799 13.5005 188.08 12.7218 188.645 12.1173C189.211 11.5128 189.971 11.2099 190.927 11.2099C191.851 11.2099 192.591 11.5076 193.153 12.1043C193.687 12.6841 193.955 13.4329 193.955 14.3481ZM192.504 14.3923C192.504 13.8268 192.379 13.3419 192.129 12.9376C191.837 12.4488 191.419 12.2044 190.877 12.2044C190.315 12.2044 189.888 12.4488 189.596 12.9376C189.345 13.3419 189.221 13.8346 189.221 14.417C189.221 14.9825 189.347 15.4674 189.596 15.8717C189.899 16.3605 190.32 16.6049 190.864 16.6049C191.397 16.6049 191.815 16.3566 192.116 15.8587C192.376 15.4466 192.504 14.9578 192.504 14.3923Z" fill="white"/>
<path d="M200.718 17.4629H199.463L199.359 16.757H199.32C198.891 17.3199 198.279 17.602 197.484 17.602C196.891 17.602 196.411 17.4161 196.05 17.0469C195.722 16.7115 195.558 16.2942 195.558 15.7989C195.558 15.0501 195.878 14.4794 196.522 14.0842C197.164 13.689 198.068 13.4953 199.232 13.5044V13.39C199.232 12.5827 198.798 12.1797 197.927 12.1797C197.307 12.1797 196.76 12.3318 196.288 12.6334L196.004 11.739C196.588 11.3867 197.31 11.2099 198.16 11.2099C199.803 11.2099 200.627 12.0549 200.627 13.7449V16.0017C200.627 16.614 200.658 17.1015 200.718 17.4629ZM199.267 15.3569V14.4118C197.726 14.3858 196.955 14.7979 196.955 15.6468C196.955 15.9666 197.043 16.2058 197.223 16.3657C197.403 16.5256 197.632 16.6049 197.906 16.6049C198.212 16.6049 198.499 16.51 198.76 16.3215C199.023 16.1317 199.184 15.8912 199.244 15.5961C199.259 15.5298 199.267 15.4492 199.267 15.3569Z" fill="white"/>
<path d="M208.657 17.4629H207.417L207.352 16.4788H207.313C206.917 17.2276 206.243 17.602 205.295 17.602C204.537 17.602 203.907 17.3121 203.407 16.7323C202.907 16.1525 202.657 15.3998 202.657 14.4755C202.657 13.4836 202.928 12.6802 203.472 12.0666C203.999 11.4946 204.644 11.2086 205.412 11.2086C206.256 11.2086 206.847 11.4855 207.183 12.0406H207.209V8.5228H208.608V15.8119C208.608 16.4086 208.624 16.9585 208.657 17.4629ZM207.209 14.8785V13.8567C207.209 13.6799 207.196 13.5369 207.171 13.4277C207.092 13.1001 206.923 12.8245 206.665 12.6022C206.405 12.3799 206.092 12.2681 205.731 12.2681C205.209 12.2681 204.801 12.4696 204.501 12.8739C204.204 13.2782 204.053 13.7943 204.053 14.4248C204.053 15.0306 204.196 15.522 204.483 15.9003C204.785 16.3033 205.193 16.5048 205.704 16.5048C206.163 16.5048 206.529 16.3371 206.808 16.0004C207.077 15.6897 207.209 15.3153 207.209 14.8785Z" fill="white"/>
<path d="M220.608 14.3481C220.608 15.2906 220.332 16.0628 219.78 16.6686C219.201 17.2913 218.436 17.602 217.477 17.602C216.556 17.602 215.821 17.3043 215.272 16.7063C214.725 16.1096 214.452 15.3569 214.452 14.4495C214.452 13.5005 214.733 12.7218 215.299 12.1173C215.864 11.5128 216.624 11.2099 217.583 11.2099C218.504 11.2099 219.247 11.5076 219.807 12.1043C220.34 12.6841 220.608 13.4329 220.608 14.3481ZM219.16 14.3923C219.16 13.8268 219.035 13.3419 218.785 12.9376C218.491 12.4488 218.075 12.2044 217.531 12.2044C216.971 12.2044 216.544 12.4488 216.249 12.9376C215.999 13.3419 215.875 13.8346 215.875 14.417C215.875 14.9825 216 15.4674 216.249 15.8717C216.552 16.3605 216.973 16.6049 217.517 16.6049C218.051 16.6049 218.471 16.3566 218.772 15.8587C219.029 15.4466 219.16 14.9578 219.16 14.3923Z" fill="white"/>
<path d="M228.121 17.4629H226.725V13.9529C226.725 12.8713 226.304 12.3305 225.457 12.3305C225.043 12.3305 224.708 12.4787 224.449 12.7764C224.191 13.0741 224.061 13.4251 224.061 13.8268V17.4616H222.663V13.0858C222.663 12.5476 222.647 11.9639 222.613 11.3321H223.84L223.905 12.2902H223.944C224.108 11.9925 224.351 11.7468 224.668 11.5505C225.048 11.3217 225.471 11.206 225.936 11.206C226.521 11.206 227.009 11.3906 227.397 11.7611C227.881 12.2148 228.121 12.8921 228.121 13.7917V17.4629Z" fill="white"/>
<path d="M237.525 12.3552H235.987V15.3322C235.987 16.0888 236.26 16.4671 236.801 16.4671C237.052 16.4671 237.26 16.4463 237.424 16.4034L237.46 17.4369C237.184 17.5383 236.821 17.589 236.375 17.589C235.823 17.589 235.393 17.4252 235.083 17.0976C234.771 16.77 234.616 16.2188 234.616 15.4453V12.3552H233.697V11.3347H234.616V10.2115L235.985 9.8085V11.3334H237.524V12.3552H237.525Z" fill="white"/>
<path d="M244.923 17.4629H243.524V13.9789C243.524 12.8804 243.103 12.3305 242.259 12.3305C241.611 12.3305 241.168 12.649 240.925 13.286C240.884 13.4199 240.86 13.5837 240.86 13.7761V17.4616H239.464V8.5228H240.86V12.2161H240.887C241.327 11.544 241.957 11.2086 242.775 11.2086C243.353 11.2086 243.832 11.3932 244.212 11.7637C244.685 12.2252 244.923 12.9116 244.923 13.819V17.4629Z" fill="white"/>
<path d="M252.554 14.1089C252.554 14.3533 252.535 14.5587 252.502 14.7264H248.311C248.33 15.3322 248.53 15.7937 248.918 16.1135C249.272 16.3995 249.73 16.5425 250.29 16.5425C250.91 16.5425 251.475 16.4463 251.984 16.2526L252.203 17.199C251.607 17.4512 250.906 17.5773 250.094 17.5773C249.12 17.5773 248.354 17.2978 247.799 16.7388C247.242 16.1798 246.966 15.4297 246.966 14.4885C246.966 13.5642 247.223 12.7946 247.742 12.181C248.283 11.5258 249.015 11.1982 249.939 11.1982C250.843 11.1982 251.53 11.5258 251.994 12.181C252.368 12.701 252.554 13.3445 252.554 14.1089ZM251.22 13.7566C251.231 13.3523 251.139 13.0039 250.95 12.7101C250.707 12.3318 250.338 12.142 249.838 12.142C249.382 12.142 249.01 12.3266 248.726 12.6971C248.494 12.9922 248.356 13.3445 248.311 13.7566H251.22Z" fill="white"/>
</svg>
