<svg width="361" height="52" viewBox="0 0 361 52" fill="none" xmlns="http://www.w3.org/2000/svg">
<path d="M361 45.988C361 48.757 356.366 51 350.633 51H11.3802C5.65067 51 1 48.757 1 45.988V6.01858C1 3.25084 5.65067 1 11.3802 1H350.631C356.366 1 360.997 3.25084 360.997 6.01858L361 45.988Z" fill="#0F0F0F"/>
<path d="M347.63 1.04162C353.82 1.04162 358.857 3.4905 358.857 6.5V45.5C358.857 48.5095 353.82 50.9584 347.63 50.9584H13.3704C7.17989 50.9584 2.1426 48.5095 2.1426 45.5V6.5C2.1426 3.4905 7.17989 1.04162 13.3704 1.04162H347.63ZM347.63 -1.976e-06H13.3704C6.02001 -1.976e-06 0 2.92662 0 6.5V45.5C0 49.0734 6.02001 52 13.3704 52H347.63C354.98 52 361 49.0734 361 45.5V6.5C361 2.92662 354.98 -1.976e-06 347.63 -1.976e-06Z" fill="#A6A6A6"/>
<path d="M152.928 12.3924C152.928 13.4779 152.595 14.3473 151.938 14.9956C151.183 15.7643 150.2 16.151 148.995 16.151C147.843 16.151 146.86 15.7577 146.053 14.9826C145.245 14.1961 144.842 13.2309 144.842 12.0755C144.842 10.9201 145.245 9.95488 146.053 9.17488C146.86 8.39325 147.843 8 148.995 8C149.568 8 150.115 8.11538 150.637 8.32988C151.157 8.546 151.58 8.8385 151.887 9.19925L151.19 9.885C150.655 9.26913 149.927 8.96525 148.995 8.96525C148.155 8.96525 147.427 9.25125 146.808 9.82812C146.197 10.4066 145.89 11.1558 145.89 12.0755C145.89 12.9952 146.197 13.7509 146.808 14.3294C147.427 14.8997 148.155 15.1922 148.995 15.1922C149.887 15.1922 150.637 14.8997 151.228 14.3229C151.618 13.941 151.84 13.4145 151.898 12.7417H148.995V11.8025H152.868C152.915 12.0056 152.928 12.2022 152.928 12.3924Z" fill="white"/>
<path d="M159.074 9.13587H155.435V11.6059H158.715V12.5451H155.435V15.0151H159.074V15.9722H154.405V8.17874H159.074V9.13587Z" fill="white"/>
<path d="M163.41 15.9722H162.38V9.13587H160.148V8.17874H165.643V9.13587H163.41V15.9722Z" fill="white"/>
<path d="M169.62 15.9722V8.17874H170.648V15.9722H169.62Z" fill="white"/>
<path d="M175.207 15.9722H174.185V9.13587H171.945V8.17874H177.447V9.13587H175.207V15.9722Z" fill="white"/>
<path d="M187.85 14.9696C187.061 15.7577 186.085 16.151 184.92 16.151C183.748 16.151 182.771 15.7577 181.983 14.9696C181.196 14.1831 180.805 13.2179 180.805 12.0755C180.805 10.9331 181.196 9.96788 181.983 9.18138C182.771 8.39325 183.748 8 184.92 8C186.078 8 187.055 8.39325 187.843 9.18787C188.636 9.98087 189.028 10.9396 189.028 12.0755C189.028 13.2179 188.636 14.1831 187.85 14.9696ZM182.745 14.3164C183.338 14.8997 184.06 15.1922 184.92 15.1922C185.773 15.1922 186.501 14.8997 187.088 14.3164C187.68 13.733 187.98 12.9839 187.98 12.0755C187.98 11.1671 187.68 10.418 187.088 9.83463C186.501 9.25125 185.773 8.95875 184.92 8.95875C184.06 8.95875 183.338 9.25125 182.745 9.83463C182.153 10.418 181.853 11.1671 181.853 12.0755C181.853 12.9839 182.153 13.733 182.745 14.3164Z" fill="white"/>
<path d="M190.474 15.9722V8.17874H191.724L195.61 14.24H195.655L195.61 12.7417V8.17874H196.639V15.9722H195.565L191.495 9.61199H191.45L191.495 11.1167V15.9722H190.474Z" fill="white"/>
<path d="M180.551 27.3538C177.42 27.3538 174.861 29.6776 174.861 32.8837C174.861 36.0638 177.42 38.4119 180.551 38.4119C183.69 38.4119 186.248 36.0638 186.248 32.8837C186.248 29.6776 183.69 27.3538 180.551 27.3538ZM180.551 36.2344C178.833 36.2344 177.355 34.8516 177.355 32.8837C177.355 30.8898 178.833 29.5313 180.551 29.5313C182.27 29.5313 183.755 30.8898 183.755 32.8837C183.755 34.8516 182.27 36.2344 180.551 36.2344ZM168.136 27.3538C164.998 27.3538 162.446 29.6776 162.446 32.8837C162.446 36.0638 164.998 38.4119 168.136 38.4119C171.273 38.4119 173.826 36.0638 173.826 32.8837C173.826 29.6776 171.273 27.3538 168.136 27.3538ZM168.136 36.2344C166.416 36.2344 164.933 34.8516 164.933 32.8837C164.933 30.8898 166.416 29.5313 168.136 29.5313C169.855 29.5313 171.333 30.8898 171.333 32.8837C171.333 34.8516 169.855 36.2344 168.136 36.2344ZM153.363 29.0487V31.3984H159.118C158.95 32.7114 158.5 33.6767 157.81 34.3494C156.97 35.1619 155.661 36.0638 153.363 36.0638C149.821 36.0638 147.048 33.2769 147.048 29.8238C147.048 26.3707 149.821 23.5838 153.363 23.5838C155.278 23.5838 156.671 24.3134 157.7 25.2592L159.398 23.6033C157.96 22.2643 156.046 21.2357 153.363 21.2357C148.506 21.2357 144.425 25.0886 144.425 29.8238C144.425 34.5591 148.506 38.4119 153.363 38.4119C155.988 38.4119 157.96 37.5734 159.51 36.0004C161.098 34.4518 161.593 32.2743 161.593 30.5161C161.593 29.9701 161.546 29.4679 161.463 29.0487H153.363ZM213.773 30.8703C213.305 29.6337 211.86 27.3538 208.916 27.3538C206 27.3538 203.571 29.5947 203.571 32.8837C203.571 35.9809 205.975 38.4119 209.196 38.4119C211.801 38.4119 213.305 36.8633 213.923 35.9614L211.99 34.7053C211.345 35.6251 210.466 36.2344 209.196 36.2344C207.935 36.2344 207.03 35.6706 206.45 34.5591L214.035 31.4992L213.773 30.8703ZM206.04 32.7114C205.975 30.5794 207.738 29.4874 209.001 29.4874C209.991 29.4874 210.831 29.9701 211.111 30.6607L206.04 32.7114ZM199.875 38.0756H202.368V21.8256H199.875V38.0756ZM195.791 28.5856H195.708C195.148 27.9388 194.08 27.3538 192.726 27.3538C189.886 27.3538 187.29 29.7848 187.29 32.9016C187.29 36.0004 189.886 38.4119 192.726 38.4119C194.08 38.4119 195.148 37.8221 195.708 37.1558H195.791V37.9488C195.791 40.0629 194.633 41.1988 192.765 41.1988C191.241 41.1988 190.296 40.1263 189.906 39.2244L187.738 40.1068C188.363 41.5726 190.018 43.3763 192.765 43.3763C195.688 43.3763 198.155 41.6993 198.155 37.6189V27.6902H195.791V28.5856ZM192.94 36.2344C191.221 36.2344 189.783 34.8321 189.783 32.9016C189.783 30.9532 191.221 29.5313 192.94 29.5313C194.633 29.5313 195.968 30.9532 195.968 32.9016C195.968 34.8321 194.633 36.2344 192.94 36.2344ZM225.446 21.8256H219.483V38.0756H221.97V31.9184H225.446C228.208 31.9184 230.916 29.9701 230.916 26.8712C230.916 23.7739 228.201 21.8256 225.446 21.8256ZM225.511 29.6581H221.97V24.0859H225.511C227.368 24.0859 228.428 25.5891 228.428 26.8712C228.428 28.1289 227.368 29.6581 225.511 29.6581ZM240.883 27.3229C239.086 27.3229 237.218 28.0964 236.45 29.8108L238.656 30.7127C239.131 29.8108 240.005 29.5183 240.928 29.5183C242.218 29.5183 243.526 30.2739 243.546 31.6081V31.7787C243.096 31.5252 242.133 31.1498 240.948 31.1498C238.571 31.1498 236.15 32.4254 236.15 34.8061C236.15 36.9836 238.096 38.3859 240.285 38.3859C241.958 38.3859 242.881 37.6498 243.461 36.7934H243.546V38.0496H245.948V31.8161C245.948 28.9349 243.741 27.3229 240.883 27.3229ZM240.583 36.2279C239.77 36.2279 238.636 35.8347 238.636 34.8516C238.636 33.5938 240.05 33.1112 241.273 33.1112C242.368 33.1112 242.881 33.3468 243.546 33.6572C243.351 35.1619 242.023 36.2279 240.583 36.2279ZM254.698 27.6788L251.84 34.7232H251.755L248.8 27.6788H246.118L250.558 37.5231L248.025 43.0009H250.623L257.465 27.6788H254.698ZM232.283 38.0756H234.776V21.8256H232.283V38.0756Z" fill="white"/>
<path d="M103.618 8.87591C103.227 9.27566 103 9.89803 103 10.704V39.4535C103 40.2595 103.227 40.8819 103.618 41.2817L103.715 41.3694L120.238 25.2657V24.8854L103.715 8.78166L103.618 8.87591Z" fill="url(#paint0_linear_204_3338)"/>
<path d="M125.74 30.6363L120.238 25.2656V24.8854L125.747 19.5148L125.87 19.5846L132.393 23.2035C134.255 24.2305 134.255 25.9205 132.393 26.954L125.87 30.5664L125.74 30.6363Z" fill="url(#paint1_linear_204_3338)"/>
<path d="M125.87 30.5664L120.238 25.0756L103.618 41.2817C104.236 41.9154 105.245 41.9918 106.391 41.3581L125.87 30.5664Z" fill="url(#paint2_linear_204_3338)"/>
<path d="M125.87 19.5847L106.391 8.79303C105.245 8.16578 104.236 8.24216 103.618 8.87591L120.238 25.0755L125.87 19.5847Z" fill="url(#paint3_linear_204_3338)"/>
<defs>
<linearGradient id="paint0_linear_204_3338" x1="118.771" y1="39.7529" x2="96.9611" y2="17.3836" gradientUnits="userSpaceOnUse">
<stop stop-color="#00A0FF"/>
<stop offset="0.0066" stop-color="#00A1FF"/>
<stop offset="0.2601" stop-color="#00BEFF"/>
<stop offset="0.5122" stop-color="#00D2FF"/>
<stop offset="0.7604" stop-color="#00DFFF"/>
<stop offset="1" stop-color="#00E3FF"/>
</linearGradient>
<linearGradient id="paint1_linear_204_3338" x1="134.817" y1="25.0737" x2="102.555" y2="25.0737" gradientUnits="userSpaceOnUse">
<stop stop-color="#FFE000"/>
<stop offset="0.4087" stop-color="#FFBD00"/>
<stop offset="0.7754" stop-color="#FFA500"/>
<stop offset="1" stop-color="#FF9C00"/>
</linearGradient>
<linearGradient id="paint2_linear_204_3338" x1="122.807" y1="22.0906" x2="93.2312" y2="-8.24404" gradientUnits="userSpaceOnUse">
<stop stop-color="#FF3A44"/>
<stop offset="1" stop-color="#C31162"/>
</linearGradient>
<linearGradient id="paint3_linear_204_3338" x1="99.4346" y1="50.8465" x2="112.642" y2="37.3008" gradientUnits="userSpaceOnUse">
<stop stop-color="#32A071"/>
<stop offset="0.0685" stop-color="#2DA771"/>
<stop offset="0.4762" stop-color="#15CF74"/>
<stop offset="0.8009" stop-color="#06E775"/>
<stop offset="1" stop-color="#00F076"/>
</linearGradient>
</defs>
</svg>
