<svg width="40" height="40" viewBox="0 0 40 40" fill="none" xmlns="http://www.w3.org/2000/svg">
<path d="M20.0343 7C20.5067 7.00002 20.9621 7.17598 21.3118 7.49356C21.6614 7.81114 21.8803 8.24757 21.9256 8.71774L21.9345 8.90016V29.1685C21.9343 29.6565 21.7463 30.1257 21.4095 30.4789C21.0728 30.832 20.6131 31.0421 20.1257 31.0655C19.6382 31.089 19.1605 30.924 18.7914 30.6048C18.4223 30.2856 18.1901 29.8366 18.143 29.3509L18.1342 29.1685V8.90016C18.1342 8.39621 18.3344 7.91289 18.6907 7.55654C19.0471 7.20019 19.5304 7 20.0343 7ZM14.9672 10.8003C15.4712 10.8003 15.9545 11.0005 16.3109 11.3569C16.6672 11.7132 16.8674 12.1965 16.8674 12.7005V25.3682C16.8674 25.8722 16.6672 26.3555 16.3109 26.7118C15.9545 27.0682 15.4712 27.2684 14.9672 27.2684C14.4633 27.2684 13.98 27.0682 13.6236 26.7118C13.2673 26.3555 13.0671 25.8722 13.0671 25.3682V12.7005C13.0671 12.1965 13.2673 11.7132 13.6236 11.3569C13.98 11.0005 14.4633 10.8003 14.9672 10.8003ZM25.1014 10.8003C25.6054 10.8003 26.0887 11.0005 26.445 11.3569C26.8014 11.7132 27.0016 12.1965 27.0016 12.7005V25.3682C27.0016 25.8722 26.8014 26.3555 26.445 26.7118C26.0887 27.0682 25.6054 27.2684 25.1014 27.2684C24.5975 27.2684 24.1142 27.0682 23.7578 26.7118C23.4015 26.3555 23.2013 25.8722 23.2013 25.3682V12.7005C23.2013 12.1965 23.4015 11.7132 23.7578 11.3569C24.1142 11.0005 24.5975 10.8003 25.1014 10.8003ZM9.90016 14.6006C10.4041 14.6006 10.8874 14.8008 11.2438 15.1572C11.6001 15.5135 11.8003 15.9968 11.8003 16.5008V21.5679C11.8003 22.0718 11.6001 22.5552 11.2438 22.9115C10.8874 23.2679 10.4041 23.468 9.90016 23.468C9.39621 23.468 8.91289 23.2679 8.55654 22.9115C8.20019 22.5552 8 22.0718 8 21.5679V16.5008C8 15.9968 8.20019 15.5135 8.55654 15.1572C8.91289 14.8008 9.39621 14.6006 9.90016 14.6006ZM30.1685 14.6006C30.6409 14.6007 31.0963 14.7766 31.446 15.0942C31.7956 15.4118 32.0145 15.8482 32.0598 16.3184L32.0687 16.5008V21.5679C32.0684 22.0559 31.8805 22.5251 31.5437 22.8782C31.207 23.2314 30.7473 23.4415 30.2598 23.4649C29.7724 23.4884 29.2947 23.3234 28.9256 23.0042C28.5565 22.685 28.3243 22.236 28.2772 21.7503L28.2684 21.5679V16.5008C28.2684 15.9968 28.4686 15.5135 28.8249 15.1572C29.1813 14.8008 29.6646 14.6006 30.1685 14.6006Z" fill="#E74876"/>
</svg>
