<svg width="40" height="40" viewBox="0 0 40 40" fill="none" xmlns="http://www.w3.org/2000/svg">
<path d="M32 18.9C32 18.3165 31.7701 17.7569 31.361 17.3444C30.9518 16.9318 30.3968 16.7 29.8182 16.7H22.9236L23.9709 11.673C23.9927 11.563 24.0036 11.442 24.0036 11.321C24.0036 10.87 23.8182 10.452 23.5236 10.155L22.3673 9L15.1891 16.238C14.7855 16.645 14.5455 17.195 14.5455 17.8V28.8C14.5455 29.3835 14.7753 29.9431 15.1845 30.3556C15.5937 30.7682 16.1486 31 16.7273 31H26.5455C27.4509 31 28.2255 30.45 28.5527 29.658L31.8473 21.903C31.9455 21.65 32 21.386 32 21.1V18.9ZM8 31H12.3636V17.8H8V31Z" fill="#E74876"/>
</svg>
