<svg width="40" height="40" viewBox="0 0 40 40" fill="none" xmlns="http://www.w3.org/2000/svg">
<path d="M13.3556 30.6364H17.9778C17.9778 31.9364 16.9378 33 15.6667 33C14.3956 33 13.3556 31.9364 13.3556 30.6364ZM11.0444 29.4545H20.2889V27.0909H11.0444V29.4545ZM24.3333 18.2273C24.3333 22.7418 21.2596 25.1527 19.9769 25.9091H11.3564C10.0738 25.1527 7 22.7418 7 18.2273C7 13.3345 10.8827 9.36364 15.6667 9.36364C20.4507 9.36364 24.3333 13.3345 24.3333 18.2273ZM29.9609 15.71L28.3778 16.4545L29.9609 17.1991L30.6889 18.8182L31.4169 17.1991L33 16.4545L31.4169 15.71L30.6889 14.0909L29.9609 15.71ZM27.2222 14.0909L28.3084 11.6564L30.6889 10.5455L28.3084 9.43455L27.2222 7L26.136 9.43455L23.7556 10.5455L26.136 11.6564L27.2222 14.0909Z" fill="#E74876"/>
</svg>
