<svg width="45" height="45" viewBox="0 0 45 45" fill="none" xmlns="http://www.w3.org/2000/svg">
<path d="M9.37539 24.7125V29.9813C9.37539 31.35 10.1254 32.625 11.3254 33.2813L20.7004 38.4C21.8254 39.0188 23.1754 39.0188 24.3004 38.4L33.6754 33.2813C34.8754 32.625 35.6254 31.35 35.6254 29.9813V24.7125L24.3004 30.9C23.1754 31.5188 21.8254 31.5188 20.7004 30.9L9.37539 24.7125ZM20.7004 6.60002L4.89414 15.225C3.60039 15.9375 3.60039 17.8125 4.89414 18.525L20.7004 27.15C21.8254 27.7688 23.1754 27.7688 24.3004 27.15L39.3754 18.9188V30C39.3754 31.0313 40.2191 31.875 41.2504 31.875C42.2816 31.875 43.1254 31.0313 43.1254 30V17.9813C43.1254 17.2875 42.7504 16.6688 42.1504 16.3313L24.3004 6.60002C23.7464 6.30457 23.1282 6.15002 22.5004 6.15002C21.8726 6.15002 21.2544 6.30457 20.7004 6.60002Z" fill="#E74876"/>
</svg>
