<svg width="40" height="40" viewBox="0 0 40 40" fill="none" xmlns="http://www.w3.org/2000/svg">
<path d="M15.8434 15.8437L18.7527 17.5894C19.0298 17.7556 19.3069 17.7628 19.584 17.611C19.8611 17.4591 19.9996 17.2164 19.9996 16.8828V8.3625C19.9996 7.89146 19.84 7.49689 19.5208 7.1788C19.2016 6.86071 18.807 6.70111 18.3371 6.7H13.3496C12.8786 6.7 12.484 6.8596 12.1659 7.1788C11.8478 7.498 11.6882 7.89257 11.6871 8.3625V16.8828C11.6871 17.2153 11.8257 17.458 12.1027 17.611C12.3798 17.7639 12.6569 17.7567 12.934 17.5894L15.8434 15.8437ZM29.9746 38.2875C27.6748 38.2875 25.7147 37.4768 24.0944 35.8553C22.474 34.2338 21.6632 32.2737 21.6621 29.975C21.661 27.6763 22.4718 25.7162 24.0944 24.0947C25.717 22.4732 27.677 21.6625 29.9746 21.6625C32.2722 21.6625 34.2328 22.4732 35.8565 24.0947C37.4802 25.7162 38.2904 27.6763 38.2871 29.975C38.2838 32.2737 37.473 34.2343 35.8549 35.8569C34.2367 37.4795 32.2766 38.2897 29.9746 38.2875ZM29.1849 33.3416L33.4243 30.6816C33.7014 30.5153 33.8399 30.2798 33.8399 29.975C33.8399 29.6702 33.7014 29.4347 33.4243 29.2684L29.1849 26.6084C28.9078 26.4422 28.6236 26.435 28.3321 26.5868C28.0406 26.7387 27.8954 26.9814 27.8965 27.315V32.635C27.8965 32.9675 28.0422 33.2102 28.3337 33.3632C28.6252 33.5161 28.909 33.5089 29.1849 33.3416ZM8.36211 36.625C7.44774 36.625 6.6647 36.2997 6.013 35.6491C5.3613 34.9985 5.036 34.2155 5.03711 33.3V6.7C5.03711 5.78562 5.36296 5.00314 6.01466 4.35255C6.66636 3.70196 7.44885 3.37611 8.36211 3.375H28.3121C29.2265 3.375 30.0095 3.70085 30.6612 4.35255C31.3129 5.00425 31.6382 5.78673 31.6371 6.7V17.2186C31.6371 17.5489 31.5191 17.826 31.283 18.0499C31.048 18.2738 30.7643 18.3857 30.4318 18.3857C28.7693 18.358 27.2176 18.5963 25.7768 19.1006C24.336 19.6038 22.9921 20.4854 21.7452 21.7456C20.6923 22.8019 19.8611 24.0321 19.2515 25.4364C18.6419 26.8395 18.3371 28.3469 18.3371 29.9584C18.3371 30.7641 18.4274 31.5632 18.6081 32.3557C18.7888 33.1482 19.0309 33.9057 19.3346 34.6283C19.5563 35.1005 19.5424 35.551 19.2931 35.9799C19.0437 36.4089 18.6696 36.6239 18.1709 36.625H8.36211Z" fill="#E74876"/>
</svg>
